<svg id="Group_22066" data-name="Group 22066" xmlns="http://www.w3.org/2000/svg" xmlns:xlink="http://www.w3.org/1999/xlink" width="90.583" height="60.635" viewBox="0 0 90.583 60.635">
  <defs>
    <clipPath id="clip-path">
      <rect id="Rectangle_57162" data-name="Rectangle 57162" width="90.583" height="60.635" fill="none"/>
    </clipPath>
  </defs>
  <g id="Group_22065" data-name="Group 22065" transform="translate(0 0)" clip-path="url(#clip-path)">
    <path id="Path_8257" data-name="Path 8257" d="M185.739,120.642c2.293-1.164,2.453-1.19,2.844,1.186.287,1.748-.039,3.588.135,5.365.25,2.564-.807,3.606-3.307,4.318-4.3,1.225-8.417,3.07-12.643,4.564a31.13,31.13,0,0,1-4.511,1.083c-.213.041-.765-.459-.761-.7a54.931,54.931,0,0,1,.351-7.119c.143-.962,1.176-1.793,1.806-2.682a.444.444,0,0,1,.118-.082l.111.852a3.278,3.278,0,0,1,.743-.461c.11-.035.3.231.469.322.133.07.339.157.443.1.762-.4,1.517-.815,2.247-1.268.167-.1.231-.373.342-.567-.218-.047-.462-.183-.651-.128-1.182.346-1.778-.294-2.066-1.275-.574-1.956-1.112-3.925-1.556-5.913-.06-.269.447-.868.8-.994,2.288-.8,4.591-1.575,6.921-2.246,2.572-.741,5.183-1.347,7.765-2.056.293-.081.508-.445.759-.678a3.3,3.3,0,0,0-.941-.091c-3.2.626-6.418,1.19-9.583,1.966-1.475.362-2.651.106-2.977-1.278a11.43,11.43,0,0,1,.17-3.946c.023-.174.858-.4,1.281-.342,4.391.61,8.777,1.265,13.16,1.934a6.938,6.938,0,0,1,1.622.5c.194.082.454.4.421.562a5.021,5.021,0,0,0,1.347,4.269c.941,1.166.489,1.605-.556,2.124-1.22.605-2.411,1.27-3.593,1.948a3.631,3.631,0,0,0-.7.722l-.205-.056.194.062m1.251,8.353.08-.666q.135-.721.269-1.442a2.07,2.07,0,0,0,.221-.353c.008-.021-.186-.181-.235-.159-.42.184-.827.4-1.238.6.447-.425.9-.842,1.334-1.282.076-.077.056-.248.08-.375-.129-.015-.316-.092-.377-.035-.512.484-1,.993-1.5,1.494l.488.166,1.257-.086a6.673,6.673,0,0,0-.49.959c-.041.12.142.316.223.477l-.09.734-.025-.031m-1.5-11.218.374-.184-.363.223.038.04-.049-.079m-2.847,1.557a7.429,7.429,0,0,0,.655-.54,3.872,3.872,0,0,0,.384-.55c-.195.092-.39.184-.584.277-.168.082-.335.166-.5.249l.031-.565c-.142.021-.344-.011-.416.071a12.07,12.07,0,0,0-.877,1.119,1.885,1.885,0,0,0-.17.5,2.515,2.515,0,0,0,.587-.143,3.944,3.944,0,0,0,.569-.425l.323.006m-6.93,5.825c2.769-.955,5.521-1.9,8.264-2.871.159-.056.234-.349.349-.531-.258-.042-.551-.185-.769-.111-2.572.872-5.133,1.776-7.695,2.675a.78.78,0,0,0-.375.208.9.9,0,0,0-.143.489c0,.044.234.092.368.141" transform="translate(-118.449 -76.773)" fill="#fff"/>
    <path id="Path_8258" data-name="Path 8258" d="M74.722,135.566c-1.549,0-3.057,0-4.565,0a3.617,3.617,0,0,1-.561-.089,1.826,1.826,0,0,1,.274-.6c.847-.8,1.728-1.57,2.582-2.366,1.024-.955,2.078-1.885,3.029-2.91a2.365,2.365,0,0,1,2.018-.831c6.068.13,11.838,1.712,17.581,3.45a8.812,8.812,0,0,1,1.037.461c-.249.277-.5.55-.745.831-.823.953-1.659,1.9-2.45,2.875-.154.191-.132.524-.191.791.266-.118.535-.227.8-.356.187-.093.36-.214.539-.322-.07.176-.128.358-.212.528s-.248.326-.282.505a4.254,4.254,0,0,0-.011.792,4.363,4.363,0,0,0,.581-.529,38,38,0,0,1,2.447-3.172c.661-.691,1.16-.537,1.086.607-.286,4.366-.519,8.736-.762,13.1a13.153,13.153,0,0,0,.006,1.457c.1,1.8-.023,1.962-1.782,1.892a19.529,19.529,0,0,1-2.759-.288q-6.824-1.262-13.635-2.59a1.874,1.874,0,0,1-1.665-2.316c.17-1.351.278-2.711.471-4.059a3.6,3.6,0,0,1,3.189-2.718,2.761,2.761,0,0,0,1.568-.86,3.073,3.073,0,0,1,2.5-.9c1.945.1,3.9.106,5.844.106a3.357,3.357,0,0,0,1.014-.346c-.32-.252-.618-.681-.965-.725-1.349-.172-2.716-.2-4.073-.32-3.978-.357-7.955-.734-11.9-1.1" transform="translate(-49.217 -91.061)" fill="#fff"/>
    <path id="Path_8259" data-name="Path 8259" d="M128.214,86.41a35.4,35.4,0,0,1-.257,4.049c-.245,1.423-3.147,3.158-4.621,2.837-5.234-1.142-10.459-2.329-15.687-3.5-.094-.021-.177-.086-.27-.109-.435-.108-.871-.208-1.307-.311a6.8,6.8,0,0,1,1.417-.85c2.42-.744,4.851-1.459,7.3-2.09a2.075,2.075,0,0,1,1.563.307c1.317,1,2.519,2.143,3.816,3.168.274.217.987.351,1.112.2a10.628,10.628,0,0,0,1.035-1.793c-.284.045-.726-.009-.826.151-.61.97-1.146.764-1.8.049-.458-.5-1.037-.883-1.533-1.35-.372-.35-.7-.75-1.045-1.127a13.691,13.691,0,0,1,1.375-.431c1.288-.266,2.589-.464,3.874-.743,1.13-.245,1.392.134,1.117,1.216a20.257,20.257,0,0,0-.426,2.875c-.024.231.163.484.253.727a2.539,2.539,0,0,0,.466-.661c.3-1.026.581-2.061.824-3.1a1.762,1.762,0,0,1,1.613-1.6c1.383-.149,1.984-1.065,2.737-2.211a26.02,26.02,0,0,1,7.823-7.543c.2-.13.53-.064.8-.089-.2.159-.38.336-.589.476a31.884,31.884,0,0,0-9.1,9.94,47.222,47.222,0,0,0-2.484,4.782c-.128.266.056.682.1,1.029.246-.2.577-.343.724-.6.708-1.218,1.367-2.464,2.044-3.7Z" transform="translate(-75.012 -52.666)" fill="#fff"/>
    <path id="Path_8260" data-name="Path 8260" d="M5.687,30.331c-.828.045-1.656.128-2.482.116A3.531,3.531,0,0,1,2.2,30.118a3.542,3.542,0,0,1,.974-.519c1.68-.29,3.365-.579,5.06-.749.889-.089,1.148-.38,1.053-1.273-.318-2.982-.51-3.167-3.377-2.494-1.612.378-3.2.854-4.812,1.237A3.628,3.628,0,0,1,0,26.237c.281-.278.513-.7.849-.812,1.846-.612,3.71-1.17,5.581-1.7,1.4-.4,1.426-.414.5-1.5-.158-.185-.414-.345-.462-.554a10.822,10.822,0,0,1-.151-1.418c.483.013,1.112-.16,1.419.078.637.495,1.053,1.262,1.656,1.813a2.171,2.171,0,0,0,1.368.657c2.038-.155,4.062-.485,6.1-.666.935-.083,1.221-.408.868-1.286a19.345,19.345,0,0,1-.9-2.461c-.083-.329.195-.749.308-1.127.276.206.685.353.8.627.444,1.024.724,2.122,1.211,3.122a1.787,1.787,0,0,0,1.178.92c1.2.1,2.43-.078,3.639-.009a4.329,4.329,0,0,1,1.4.642c-.41.4-.777,1.064-1.238,1.136a12.2,12.2,0,0,1-2.912-.073c-1.072-.095-1.67.116-1.44,1.411.176.991-.246,2.348.279,2.942.5.57,1.893.322,2.874.527.355.074.654.42.979.641a3.873,3.873,0,0,1-.859.882,2.79,2.79,0,0,1-1.147.134c-2.351.075-2.351.071-3.149,2.339a2.156,2.156,0,0,1-.254.678,8.3,8.3,0,0,1-.877.8,3.132,3.132,0,0,1-.211-1.126c.583-2.81.6-2.807-2.268-2.842-.146,0-.293-.011-.439-.006-1.117.038-2.558-.324-3.256.237-.632.507-.458,2.02-.629,3.091-.322,2.016-1.7,3.21-3.313,4.2a.78.78,0,0,1-.754-.093.872.872,0,0,1,.034-.8A8.158,8.158,0,0,1,8.077,35.06a4.646,4.646,0,0,0,1.315-3.715c.022-.928-.358-1.19-1.222-1.125-.823.061-1.655.013-2.483.013v.1m8.721-1.888c4.446-.144,4.53-.245,4.069-3.811-.1-.738-.372-1.033-1.1-.973-2.031.167-4.067.284-6.092.51a1.143,1.143,0,0,0-.707.868c.314,3.519.333,3.518,3.838,3.406.049,0,.1,0-.008,0" transform="translate(0 -12.206)" fill="#fff"/>
    <path id="Path_8261" data-name="Path 8261" d="M55.086,71.428l.608.128a4.76,4.76,0,0,1-.766.3C48.106,73.274,41.263,74.6,34.466,76.12,29.43,77.248,24.443,78.6,19.457,79.937c-.657.176-1.18.851-1.763,1.3-.281.215-.56.615-.834.609a1.142,1.142,0,0,1-.879-.6,1.321,1.321,0,0,1,.19-1.165,4.164,4.164,0,0,1,1.651-.873c4.663-1.23,9.3-2.605,14.017-3.567,7.447-1.518,14.952-2.75,22.433-4.1.24-.043.483-.068.814-.114" transform="translate(-11.263 -50.512)" fill="#fff"/>
    <path id="Path_8262" data-name="Path 8262" d="M93.847,104.186c.632.571,1.234,1.107,1.806,1.673.016.016-.246.454-.435.513-3.438,1.07-6.881,2.124-10.336,3.139a1.826,1.826,0,0,1-1.088-.169c-1.071-.438-2.122-.926-3.176-1.4a4.039,4.039,0,0,1-.465-.289,2.949,2.949,0,0,1,.518-.238c4.3-1.057,8.594-2.106,13.177-3.226" transform="translate(-56.682 -73.678)" fill="#fff"/>
    <path id="Path_8263" data-name="Path 8263" d="M202.636,100.276c2.436.114,4.872.221,7.307.353a4.327,4.327,0,0,1,.925.26,6.553,6.553,0,0,1-.59.779,8.935,8.935,0,0,1-1.418,1.255,2.564,2.564,0,0,1-1.506.521c-4.054-.573-8.1-1.213-12.14-1.884-.412-.069-.767-.476-1.149-.725.471-.324.946-.929,1.413-.924,2.387.029,4.772.215,7.158.346,0,.006,0,.012,0,.018" transform="translate(-137.238 -70.655)" fill="#fff"/>
    <path id="Path_8264" data-name="Path 8264" d="M100.406,4.429c-.76,3.783-1.473,7.5-2.267,11.209-.452,2.108-.51,2.12,1.545,2a14.18,14.18,0,0,0,1.79-.387,7.254,7.254,0,0,1,.862-.068c.015.32.169.808.02.93a5.985,5.985,0,0,1-1.986,1.28,28.723,28.723,0,0,1-3.735.6c-1.127.162-.9-.54-.743-1.188.711-2.882,1.469-5.754,2.118-8.65a19.712,19.712,0,0,0,.67-4.611,25.125,25.125,0,0,0-.863-4.222A7.35,7.35,0,0,1,97.79,0c.471.178,1.227.236,1.363.556a40.465,40.465,0,0,1,1.254,3.874" transform="translate(-67.719 0.001)" fill="#fff"/>
    <path id="Path_8265" data-name="Path 8265" d="M214.912,9.688c.069-.724.1-1.454.231-2.165.036-.194.388-.328.6-.489a2.445,2.445,0,0,1,.262.608c.261,1.962.5,3.926.749,5.89a1.136,1.136,0,0,0,.062.285c.209.517.425,1.032.639,1.548a9.658,9.658,0,0,0,.956-1.224c1.416-2.549,2.8-5.115,4.193-7.677a6.22,6.22,0,0,1,.627-1.144,1,1,0,0,1,.832-.334c.206.081.331.521.372.819a1.2,1.2,0,0,1-.223.68c-2.1,3.552-4.2,7.105-6.33,10.637-.2.331-.64.519-.969.773a3.865,3.865,0,0,1-.66-1.052c-.549-2.356-1.04-4.726-1.55-7.092l.212-.062" transform="translate(-151.831 -3.512)" fill="#fff"/>
    <path id="Path_8266" data-name="Path 8266" d="M126.932,36.343a3.613,3.613,0,0,1-2.339,3.241c-.815.325-1.637.629-2.46.935-.841.313-1.806.4-2.186-.484A3.413,3.413,0,0,1,119.9,37.6c.631-1.473,2.575-1.9,4.339-1.206a10.851,10.851,0,0,0,1.41.351c-.268-.584-.4-1.34-.843-1.705a5.432,5.432,0,0,0-1.892-.574c-.288-.083-.567-.2-.85-.3.218-.289.375-.692.665-.85,1.849-1,4.205.534,4.208,3.021M121.739,39.6,124.1,38.4a8.767,8.767,0,0,0-2.121-.857c-.371-.052-.83.524-1.25.816l1.011,1.236" transform="translate(-84.646 -23.345)" fill="#fff"/>
    <path id="Path_8267" data-name="Path 8267" d="M279.479,3.71c-.16,1.982-.294,3.967-.489,5.945a2.76,2.76,0,0,1-3.978,1.942,1.574,1.574,0,0,1-.586-1.3,4.366,4.366,0,0,1,2.8-3.461,1.366,1.366,0,0,0,1.04-1.45c.127-1.352.243-2.705.423-4.05.037-.278.335-.521.512-.78a2.694,2.694,0,0,1,.368.832c.052.772.018,1.549.018,2.324h-.108m-1.592,4.938a4.318,4.318,0,0,0-.605-.517c-.57.51-1.077,1.09-1.6,1.654.325.237.629.636.979.682.993.131,1.392-.44,1.224-1.82" transform="translate(-194.058 -0.392)" fill="#fff"/>
    <path id="Path_8268" data-name="Path 8268" d="M201.454,27.205c-.305,1.515-.451,2.628-.766,3.692-.327,1.1-2.1,1.79-3.322,1.4a1.949,1.949,0,0,1-1.282-2.436,2.237,2.237,0,0,1,2.823-1.62,8.4,8.4,0,0,0,1.159.08c-.183-.519-.235-1.17-.587-1.52-.319-.316-.965-.3-1.466-.436-.25-.066-.5-.136-.749-.2.158-.267.3-.751.478-.765a4.877,4.877,0,0,1,2.454.1c.638.339.957,1.276,1.257,1.717m-3.089,4.277,1.06-.871a11.469,11.469,0,0,0-1.583-1.092c-.113-.056-.511.461-.778.714l1.3,1.25" transform="translate(-138.611 -17.88)" fill="#fff"/>
    <path id="Path_8269" data-name="Path 8269" d="M241.045,27.91c-1.894.012-3.456-1.682-3.227-3.143a.717.717,0,0,1,.036-.139c.224-.6,3.6-2.995,4.205-2.812a2.685,2.685,0,0,1,1.631,1.095,1.446,1.446,0,0,1-1.062,1.932,19.428,19.428,0,0,1-2.427.4,3.956,3.956,0,0,0-.746.292c.17.27.311.744.515.773a20.2,20.2,0,0,0,2.511.122c.436.007.872-.037,1.308-.058-.316.361-.565.865-.963,1.05a8.953,8.953,0,0,1-1.782.491m.271-3.935,1.089-.555c-.223-.139-.479-.427-.663-.387a4.748,4.748,0,0,0-1.081.528l.654.414" transform="translate(-168.164 -15.42)" fill="#fff"/>
    <path id="Path_8270" data-name="Path 8270" d="M260.365,25.758c.213-2.183.371-3.974.571-5.76.1-.9,1.177-1.415,2.436-1.216,1.034.164,1.655.964,1.165,1.739a7.382,7.382,0,0,0-.822,5.309c.034.244-.4.553-.611.832-.127-.277-.271-.548-.372-.834-.046-.129.041-.309-.013-.431-.218-.495-.466-.975-.7-1.461a11.524,11.524,0,0,1-.5,1.366,10.787,10.787,0,0,1-.787,1.177l-.366-.719m2.459-5.8a16.742,16.742,0,0,0-.862,1.513c-.04.09.215.31.334.471a14.84,14.84,0,0,0,.957-1.173c.05-.074-.167-.331-.429-.811" transform="translate(-184.124 -13.252)" fill="#fff"/>
    <path id="Path_8271" data-name="Path 8271" d="M170.067,30.219a4.114,4.114,0,0,0,.9.228,5.046,5.046,0,0,0,1.062-.134c-.112-.351-.122-.811-.358-1.027a6.338,6.338,0,0,0-1.346-.756l-.671-.357c.184-.208.358-.581.553-.592a3.387,3.387,0,0,1,1.662.174,2.887,2.887,0,0,1,.424,4.608,15.434,15.434,0,0,1-2.72,1.929,2.2,2.2,0,0,1-1.953-.034,2.434,2.434,0,0,1-.412-1.953,2.678,2.678,0,0,1,2.861-2.086m-.924,1.069-.986,1.343c.315.227.735.711.924.633a8.8,8.8,0,0,0,1.595-1.063l-1.533-.913" transform="translate(-118.215 -19.489)" fill="#fff"/>
    <path id="Path_8272" data-name="Path 8272" d="M144.3,98.888a2.082,2.082,0,0,1-2.257,1.986,44.9,44.9,0,0,0-6.43,1.218c-.577.119-2.146-.718-2.138-1.258,0-.2.476-.52.765-.56,2.983-.406,5.972-.764,8.959-1.142.376-.048.746-.14,1.118-.211Z" transform="translate(-94.387 -69.931)" fill="#fff"/>
    <path id="Path_8273" data-name="Path 8273" d="M144.74,35.764a7.232,7.232,0,0,1,2.215-4.812c1.068-1,2.883-1.282,3.756-.58a3.408,3.408,0,0,1,.6,1.069c-.375.04-.8.214-1.117.1-1.2-.45-2.331-.521-3.151.611-.967,1.334-1.621,2.835-.929,4.481.44,1.048,1.438,1.051,2.38.692.444-.169.806-.542,1.242-.744a5.667,5.667,0,0,1,1.09-.271c-.151.327-.222.75-.471.963a8.158,8.158,0,0,1-1.8,1.22c-2.177,1.013-3.927-.2-3.821-2.724" transform="translate(-102.353 -21.203)" fill="#fff"/>
    <path id="Path_8274" data-name="Path 8274" d="M188.137,36.7q.289-5.5.576-11.009a6.774,6.774,0,0,1,.049-1.307,3.259,3.259,0,0,1,.582-.888c.17.3.473.6.49.907.144,2.717.318,5.437.314,8.155a4.682,4.682,0,0,1-2.043,4.111Z" transform="translate(-133.023 -16.617)" fill="#fff"/>
    <path id="Path_8275" data-name="Path 8275" d="M173.833,61.652c-.994.851-1.95,1.754-3.018,2.5-.172.119-1.087-.372-1.237-.749a4.792,4.792,0,0,1,2-5.706c.442-.248,1.117-.084,1.685-.109-.281.442-.53.908-.849,1.32-.421.542-1.184.988-1.29,1.569-.239,1.3,1.135,1.845,2.726,1.15Z" transform="translate(-119.715 -40.702)" fill="#fff"/>
    <path id="Path_8276" data-name="Path 8276" d="M295.31,20.37l1.14.1c-.247.324-.454.876-.749.928a3.017,3.017,0,0,1-1.949-.136c-.411-.259-.331-1.2-.7-1.633-.785-.923.311-.989.54-1.436a10.674,10.674,0,0,1,1.194-2.143,2.047,2.047,0,0,1,1.569-.744c.46.1.866.812,1.128,1.338.344.691.049,1.195-.724,1.423a9.3,9.3,0,0,0-2.038.751,1.227,1.227,0,0,0-.4,1.083c.069.3.565.493.874.733l.122-.264m-.1-2.785,1.077-.8c-.145-.085-.343-.276-.427-.235a5.553,5.553,0,0,0-.911.611c-.01.008.133.215.261.419" transform="translate(-207.04 -10.814)" fill="#fff"/>
    <path id="Path_8277" data-name="Path 8277" d="M203.429,63.035l-.608-.174c.18-.137.347-.372.541-.4,1.688-.219,3.376-.493,5.073-.575,3.79-.185,7.585-.271,11.379-.389a4.393,4.393,0,0,1,.708.092,3.828,3.828,0,0,1-.621.148q-8.23.581-16.46,1.15l-.011.146" transform="translate(-143.43 -43.49)" fill="#fff"/>
    <path id="Path_8278" data-name="Path 8278" d="M141.381,79.341l-.714-.281a3.518,3.518,0,0,1,.461-.278c.8-.332,1.6-.651,2.406-.977.273-.111.542-.23.813-.346-.168.229-.288.547-.514.671-.834.456-1.7.847-2.452,1.211" transform="translate(-99.476 -54.778)" fill="#fff"/>
    <path id="Path_8279" data-name="Path 8279" d="M170.458,90.9a3.344,3.344,0,0,1,1.119-3.115,2.309,2.309,0,0,1,.647-.238,3.5,3.5,0,0,1-.2.57c-.518.921-1.05,1.834-1.578,2.75l.016.033" transform="translate(-120.533 -61.913)" fill="#fff"/>
    <path id="Path_8280" data-name="Path 8280" d="M223.8,95.734l-.825-.136c.277-.028.554-.075.832-.08a6.164,6.164,0,0,1,.7.061l-.7.155" transform="translate(-157.683 -67.548)" fill="#fff"/>
    <path id="Path_8281" data-name="Path 8281" d="M87.086,159.673l.266.033c-.089.046-.178.129-.266.128s-.177-.084-.265-.131l.266-.031" transform="translate(-61.397 -112.917)" fill="#fff"/>
    <path id="Path_8282" data-name="Path 8282" d="M89.49,172.159l-.032.263c-.045-.088-.125-.176-.124-.263s.083-.176.129-.264l.027.263" transform="translate(-63.175 -121.561)" fill="#fff"/>
    <path id="Path_8283" data-name="Path 8283" d="M127.525,99.542c-.064.049-.129.138-.193.137s-.15-.08-.224-.125a1.284,1.284,0,0,1,.257-.192c.023-.01.105.116.16.18" transform="translate(-89.888 -70.266)" fill="#fff"/>
    <path id="Path_8284" data-name="Path 8284" d="M206.675,72.948c-.042.011-.111.043-.122.029a.383.383,0,0,1-.045-.139.376.376,0,0,1,.131.013c.022.011.024.063.035.1" transform="translate(-146.038 -51.509)" fill="#fff"/>
    <path id="Path_8285" data-name="Path 8285" d="M126.316,84.922c.044-.01.106-.043.127-.025s.033.086.047.132a.389.389,0,0,1-.135-.011c-.023-.01-.027-.062-.039-.1" transform="translate(-89.328 -60.034)" fill="#fff"/>
    <path id="Path_8286" data-name="Path 8286" d="M133.5,83.912a1.312,1.312,0,0,1-.218.074c-.026,0-.061-.045-.092-.071a1.339,1.339,0,0,1,.215-.078c.024,0,.059.045.1.074" transform="translate(-94.188 -59.288)" fill="#fff"/>
    <path id="Path_8287" data-name="Path 8287" d="M222.656,26.441l.031.1-.082-.014Z" transform="translate(-157.421 -18.699)" fill="#fff"/>
    <path id="Path_8288" data-name="Path 8288" d="M181.726,115.216l.061.049-.1-.042Z" transform="translate(-128.486 -81.478)" fill="#fff"/>
    <path id="Path_8289" data-name="Path 8289" d="M104.662,161.092l.149-.079-.124.021-.025.058" transform="translate(-74.015 -113.865)" fill="#fff"/>
    <path id="Path_8290" data-name="Path 8290" d="M104.687,161.083l.038.088-.063-.03.025-.058" transform="translate(-74.015 -113.914)" fill="#fff"/>
    <path id="Path_8291" data-name="Path 8291" d="M101.226,165.731l-.064-.011.036.044Z" transform="translate(-71.539 -117.194)" fill="#fff"/>
    <path id="Path_8292" data-name="Path 8292" d="M184.835,71.361l.1-.036-.115.064.02-.028" transform="translate(-130.697 -50.439)" fill="#fff"/>
    <path id="Path_8293" data-name="Path 8293" d="M101.284,165.791l.028-.033Z" transform="translate(-71.626 -117.22)" fill="#fff"/>
    <path id="Path_8294" data-name="Path 8294" d="M188.083,68.487l-.008.053.042-.022Z" transform="translate(-133.002 -48.432)" fill="#fff"/>
    <path id="Path_8295" data-name="Path 8295" d="M218.422,143.893l-.337,0,.329-.637q0,.32.008.64" transform="translate(-154.225 -101.305)" fill="#fff"/>
  </g>
</svg>
