<svg id="Group_22064" data-name="Group 22064" xmlns="http://www.w3.org/2000/svg" xmlns:xlink="http://www.w3.org/1999/xlink" width="61.092" height="52.917" viewBox="0 0 61.092 52.917">
  <defs>
    <clipPath id="clip-path">
      <rect id="Rectangle_57161" data-name="Rectangle 57161" width="61.092" height="52.917" fill="none"/>
    </clipPath>
  </defs>
  <g id="Group_22063" data-name="Group 22063" transform="translate(0 0)">
    <g id="Group_22062" data-name="Group 22062" clip-path="url(#clip-path)">
      <path id="Path_8253" data-name="Path 8253" d="M95.96,9.116a9.273,9.273,0,0,0-10.894,1.179c-3.292,2.965-6.288,6.259-9.611,9.608l1.133,2.057c3.258-1.2,5.408-.013,7.381,2.307a9.116,9.116,0,0,0,10.359,2.916,9.388,9.388,0,0,0,6.838-8.594,9.736,9.736,0,0,0-5.2-9.472M91.317,25.545a7.7,7.7,0,0,1-7.567-7.613c-.127-4.214,3.594-7.982,7.657-7.626A7.405,7.405,0,0,1,99,17.778a7.746,7.746,0,0,1-7.682,7.767" transform="translate(-40.119 -4.189)" fill="#fff"/>
      <path id="Path_8254" data-name="Path 8254" d="M30.011,45.529l.159,6.817L35.5,50.289c5.391-1.375,7.806.831,6.993,3.991a40.658,40.658,0,0,0-9.14,1.316c-3.878.963-5.577,4.144-5.324,7.849.592,4.156,3.1,7.274,9.934,6.64,1.365-.126,3.186-1.13,5.4-3.1l1.112,1.987c.354.631,4.076,1.872,9.219.318v-6.12c-.98-.106-2.2,1.06-2.94-1.113V49.741c0-7.3-13.384-8.59-20.742-4.212M39.59,58.992l2.94-.238v2.463A3.9,3.9,0,0,1,38.4,64.435c-4.083-.107-3.536-4.873,1.192-5.444" transform="translate(-14.888 -22.87)" fill="#fff" fill-rule="evenodd"/>
      <path id="Path_8255" data-name="Path 8255" d="M50.259,10.059a29.527,29.527,0,0,1-7.153,10.41l4.053,2.622c3.18-1.873,6.038-5.067,8.583-9.695Z" transform="translate(-22.92 -5.348)" fill="#fff" fill-rule="evenodd"/>
      <path id="Path_8256" data-name="Path 8256" d="M52.917,52.917H0V0H52.917V2.869H51.044v-1H1.873V51.044H51.044V24.773h1.873Z" fill="#fff"/>
    </g>
  </g>
</svg>
