<svg id="Group_22059" data-name="Group 22059" xmlns="http://www.w3.org/2000/svg" xmlns:xlink="http://www.w3.org/1999/xlink" width="82.356" height="50.932" viewBox="0 0 82.356 50.932">
  <defs>
    <clipPath id="clip-path">
      <rect id="Rectangle_57159" data-name="Rectangle 57159" width="82.356" height="50.932" fill="none"/>
    </clipPath>
  </defs>
  <g id="Group_22058" data-name="Group 22058" clip-path="url(#clip-path)">
    <path id="Path_8238" data-name="Path 8238" d="M289.35,24.541l3.182-.959q0-.117.008-.234c-.322-.043-.643-.091-.966-.128a16.14,16.14,0,0,1-9.186-3.709,8.545,8.545,0,0,1-1.27-1.41,4.419,4.419,0,0,1,1.207-6.688,12.106,12.106,0,0,1,7.2-1.783,16.562,16.562,0,0,1,9.269,2.728,12.022,12.022,0,0,1,2.939,2.9c1.585,2.244.92,4.369-.955,5.834A15.178,15.178,0,0,1,297.2,23a21.247,21.247,0,0,1-7.849,1.543" transform="translate(-229.232 -7.877)" fill="#fff"/>
    <path id="Path_8239" data-name="Path 8239" d="M187.723,129.358c1.3-1.61,2.569-3.185,3.851-4.748.4-.49.852-.941,1.271-1.417a1.253,1.253,0,0,1,1.631-.294c1.032.469,1.131.881.368,1.731a84.805,84.805,0,0,0-8.751,11.439c-.251.4-.454.829-.679,1.244l.265.249a7.373,7.373,0,0,0,.97-.9c1.854-2.454,3.674-4.933,5.53-7.385a1.072,1.072,0,0,1,1.342-.453c1.188.46,1.276.778.509,1.785q-2.032,2.668-4.006,5.38a15.288,15.288,0,0,0-.812,1.406l.953.136c-.779.928-1.414,1.982-2.572,1.965-.6-.009-1.2-.77-1.906-1.271-.72.363-1.292,2.04-2.788.976-1.407-1-.169-1.973.206-3.234-.545.534-.909.892-1.274,1.248-.585.57-1.167,1.141-1.756,1.705-.464.444-.93.754-1.59.278s-1.014-1.069-.607-1.779c1.061-1.854,2.128-3.716,3.357-5.458a12.688,12.688,0,0,1,2.577-2.526c1.647-1.3,2.136-1.262,3.91-.074m-6.9,7.975c2.286-2.381,4.687-4.432,6.367-7.236-1.747.164-6.084,5.056-6.367,7.236" transform="translate(-145.44 -100.441)" fill="#fff"/>
    <path id="Path_8240" data-name="Path 8240" d="M295.722,163.25a24.647,24.647,0,0,0-.781,2.4c-.147.678.323,1.086.9.762a29.711,29.711,0,0,0,4.121-2.666,2.481,2.481,0,0,1,2.794-.5c.44.254.5.509.172.935a7.9,7.9,0,0,0-1.137,1.962,7.3,7.3,0,0,0,2.932-2.981c-.611-.109-1.107-.165-1.586-.289-1.111-.287-1.5-1.054-.949-2.059a9.427,9.427,0,0,1,4.325-4c.878-.416,2.178.2,3.067,1.258.706.838.267,1.539-.215,2.207-.762,1.057-1.5,2.205-3.11,1.872a10.056,10.056,0,0,1-.986-.326l2.938-3.29-.265-.241a15.231,15.231,0,0,0-3.487,3.9c.627.156,1.122.245,1.594.4a1.327,1.327,0,0,1,.935,1.781,4.237,4.237,0,0,1-6.38,2.423,9.252,9.252,0,0,1-1.411-1.563,29.636,29.636,0,0,1-2.6,1.873,3.4,3.4,0,0,1-1.877.462c-1.758-.144-2.482-1.159-2.079-2.869a12.068,12.068,0,0,1,5.62-7.6,3.121,3.121,0,0,1,3.826.881,1.338,1.338,0,0,1,.095,1.087,10.83,10.83,0,0,1-3.788,4.65c-.9.627-1.722.228-2.668-.47m.568-.918.3.295a13.3,13.3,0,0,0,3.993-3.976l-.319-.314-3.974,4" transform="translate(-239.412 -128.233)" fill="#fff"/>
    <path id="Path_8241" data-name="Path 8241" d="M10,228.793c2.823-.646,5.633-1.359,8.472-1.929a192.091,192.091,0,0,1,52.4-2.882,38.429,38.429,0,0,1,4.3.633c.356.068.65.462.972.706a5.09,5.09,0,0,1-.878.929,3.134,3.134,0,0,1-2.412.428c-8.666-1.7-17.432-1.854-26.217-1.53a282.468,282.468,0,0,0-34.1,3.525q-1.164.186-2.33.364a.494.494,0,0,1-.171-.039l-.023-.2" transform="translate(-8.187 -182.807)" fill="#fff"/>
    <path id="Path_8242" data-name="Path 8242" d="M5.845,139.564a17.461,17.461,0,0,1-1.68.725,3.353,3.353,0,0,1-3.406-.606,2.657,2.657,0,0,1-.568-2.944,21.373,21.373,0,0,1,8.29-11.863,4.839,4.839,0,0,1,2.61-.821,2.36,2.36,0,0,1,2.492,3.366,33.574,33.574,0,0,1-2.39,5.457,34.778,34.778,0,0,1-3.008,4.295c-.378.494-.451.79-.07,1.314.8,1.1,1.506,2.259,2.255,3.392.469.71.22,1.184-.484,1.513a7.072,7.072,0,0,1-.663.289c-1.139.4-1.3.313-1.792-.768-.509-1.117-1.05-2.22-1.586-3.348m.92-3.2a15.6,15.6,0,0,0,4.892-8.309c.072-.375-.442-1.063-.857-1.293a2.5,2.5,0,0,0-2.86.47,16.134,16.134,0,0,0-4.786,6.059,4.609,4.609,0,0,0-.184.674c2.147-.549,2.414,1.626,3.795,2.4m-4.113-1.385c-.422,1.372-.265,2.3.368,2.665a1.21,1.21,0,0,0,1.609-.2l-1.977-2.469" transform="translate(0 -101.528)" fill="#fff"/>
    <path id="Path_8243" data-name="Path 8243" d="M381.3,101.958c2.318-2.846,4.9-4.877,8.384-5.5a1.561,1.561,0,0,1,1.12.195,32.548,32.548,0,0,1,3.326,2.9,2.364,2.364,0,0,1,.265,1.633A7.422,7.422,0,0,1,392.614,105a15.974,15.974,0,0,1-5.4,4.493,2.274,2.274,0,0,0-1.318,1.592,5.039,5.039,0,0,1-.206.6c-.5,1.352-.519,1.333-1.862.9-.7-.229-.794-.586-.689-1.278a3.221,3.221,0,0,1,2.014-2.716,11.106,11.106,0,0,0,6.12-7.575c.2-.837.319-1.826-.409-2.375-.748-.565-1.564.067-2.251.472a8.543,8.543,0,0,0-3.4,3.794c-.287.6-.588.763-1.176.45-.848-.451-1.711-.871-2.739-1.391" transform="translate(-312.066 -78.918)" fill="#fff"/>
    <path id="Path_8244" data-name="Path 8244" d="M56.042,162.011c.689-.77,1.416-1.51,2.06-2.316,1.582-1.981,3.1-4.015,4.714-5.968a1.568,1.568,0,0,1,1.326-.392c1.164.295,1.217.718.505,1.671-1.482,1.984-2.921,4-4.368,6.012a7.421,7.421,0,0,0-.455.861l.794.079c-.022.117-.009.226-.057.28a11.758,11.758,0,0,1-1.058,1.117c-1.3,1.108-2.411.753-2.916-1l-1.634,1.255a1.259,1.259,0,0,1-1.731-.025,1.222,1.222,0,0,1-.433-1.675c.931-1.586,1.855-3.185,2.919-4.682a41.547,41.547,0,0,1,3.026-3.607,1.374,1.374,0,0,1,2.174.152,1.035,1.035,0,0,1-.161.895c-1.385,1.907-2.817,3.78-4.213,5.68a15.237,15.237,0,0,0-.814,1.38l.322.281" transform="translate(-43.057 -125.349)" fill="#fff"/>
    <path id="Path_8245" data-name="Path 8245" d="M154.857,270.831q7.852,0,15.7,0c.3,0,.671-.086.889.054.283.182.617.555.611.838s-.381.6-.67.773c-.2.123-.53.039-.8.039H139.273c-.272,0-.606.084-.8-.041-.283-.181-.643-.518-.644-.79s.335-.646.619-.823c.222-.138.588-.051.89-.051q7.761,0,15.521,0" transform="translate(-112.801 -221.633)" fill="#fff"/>
    <path id="Path_8246" data-name="Path 8246" d="M104.41,160.166a21.071,21.071,0,0,0-.774,2.26c-.169.75.287,1.113,1.016.788.906-.4,1.754-.938,2.624-1.423a2.15,2.15,0,0,1,.875-.348c-.084.158-.13.364-.259.466a34.216,34.216,0,0,1-2.875,2.18,2.65,2.65,0,0,1-1.636.325c-1.719-.22-2.445-1.143-2.055-2.82a11.867,11.867,0,0,1,5.9-7.79,3.083,3.083,0,0,1,3.557,1.038,1.49,1.49,0,0,1,.044,1.179,10.684,10.684,0,0,1-3.617,4.449c-.85.611-1.213.538-2.8-.3m4.772-4.822a11.945,11.945,0,0,0-3.958,4,9.642,9.642,0,0,0,3.958-4" transform="translate(-82.843 -125.69)" fill="#fff"/>
    <path id="Path_8247" data-name="Path 8247" d="M255.682,162.12l3.339-3.6-.193-.249a3.625,3.625,0,0,0-.616.349,17.631,17.631,0,0,0-4.683,6.153.451.451,0,0,0-.061.17c0,.425.014.849.022,1.274a3.947,3.947,0,0,0,1.272-.16c.782-.385,1.5-.9,2.251-1.351a1.8,1.8,0,0,1,.8-.307c-1.157,1.4-2.421,2.714-4.278,3.022a2.193,2.193,0,0,1-2.545-2.732,12.2,12.2,0,0,1,5.849-7.837A3.055,3.055,0,0,1,260.5,158a1.127,1.127,0,0,1,.1.774,6.552,6.552,0,0,1-2.374,3.656,1.865,1.865,0,0,1-2.554-.306" transform="translate(-205.365 -128.165)" fill="#fff"/>
    <path id="Path_8248" data-name="Path 8248" d="M137.8,132.945l-.474-.314c.15-.2.26-.489.458-.572q2.624-1.1,5.281-2.123a.955.955,0,0,1,.824.048c.14.139.1.572,0,.816a2.37,2.37,0,0,1-2.388,1.8,31.293,31.293,0,0,0-3.7.342" transform="translate(-112.392 -106.286)" fill="#fff"/>
    <path id="Path_8249" data-name="Path 8249" d="M384.356,193.665c1.132.145,2.262.932,2.171,1.512-.193,1.224-.909,2.245-1.515,2.161-1.318-.183-2.141-.712-2.065-1.326.16-1.3.835-2.42,1.41-2.347" transform="translate(-313.408 -158.497)" fill="#fff"/>
    <path id="Path_8250" data-name="Path 8250" d="M264.713,138.974a13.332,13.332,0,0,1-1.3-.586c-.428-.254-.447-.619-.1-.971a16.726,16.726,0,0,1,1.688-1.614,1.521,1.521,0,0,1,1.155-.228,1.725,1.725,0,0,1,1.093.762c.109.26-.227.84-.519,1.107a24.518,24.518,0,0,1-2.021,1.53" transform="translate(-215.305 -110.93)" fill="#fff"/>
    <path id="Path_8251" data-name="Path 8251" d="M40.739,21.473a111.583,111.583,0,0,0,16.9-.873c-.807.194-1.611.4-2.422.58-.857.187-1.718.355-2.58.514A87.23,87.23,0,0,1,30.621,23.34c-3.351-.235-6.721-.461-9.854-1.822a18.665,18.665,0,0,1-3.635-2.012C13,16.462,12.489,11.747,15.786,7.8a19.815,19.815,0,0,1,9.007-5.88,29.884,29.884,0,0,1,19.414-.551A13.676,13.676,0,0,1,49.862,4.7a7.244,7.244,0,0,1,1.161,9.3,16.65,16.65,0,0,1-7.468,6.261c-.919.446-1.876.815-2.816,1.219M23.918,5.313c-.391.666-.75,1.182-1.014,1.743a10.918,10.918,0,0,0-1.089,6.428,2.121,2.121,0,0,0,.992,1.248c.2.121.8-.253,1.114-.524a15.516,15.516,0,0,0,1.3-1.407c-.268,1.346-.661,2.607-1.009,3.881-.375,1.373-.331,1.435,1.078,2.215.094-.429.179-.834.271-1.237.746-3.269,1.478-6.542,2.248-9.805.247-1.046.133-1.359-.967-1.871-.742,2.794-1.225,5.725-3.928,7.784A11.05,11.05,0,0,1,25.1,6.392L23.918,5.313m10.316,6.3-.26-.127c.085-.314.158-.632.257-.941.134-.418.295-.8-.321-1.01-.683-.229-.689.274-.774.667A2.658,2.658,0,0,1,31.5,12.344a22.793,22.793,0,0,1,.52-2.483c.1-.316.5-.559.793-.786A4.327,4.327,0,0,1,33.56,8.7l-.079-.2-1.046-.063.505-1.839-.226-.2a10.932,10.932,0,0,0-1.282,1.185A12.56,12.56,0,0,0,30.5,9.115a4.023,4.023,0,0,1,.158,1.059c-.076.657-.325,1.3-.359,1.953a1.224,1.224,0,0,0,.481.934c.219.139.671.014.971-.111a3.769,3.769,0,0,0,.791-.615c1.028,1.436,1.462-.025,1.894-.274.51.262.95.677,1.2.584a3.73,3.73,0,0,0,1.859-1.713l-.164-.172-1.272,1.064c-.441-.852.929-2.047-.548-2.62l-1.277,2.406m10.684-.64c-.463-.277-.79-.624-1.017-.568a1.05,1.05,0,0,0-.55.776c-.022.153.444.546.644.517.275-.04.508-.377.923-.725m-7.239.795c.406.269.689.595.874.546.267-.07.464-.411.691-.637-.228-.225-.449-.616-.687-.627s-.479.371-.878.718m4.531-.553c-.472-.236-.825-.557-1.044-.482a1.049,1.049,0,0,0-.493.815c-.009.159.489.519.684.473.272-.065.474-.424.853-.805m-5.923-3.87a3.47,3.47,0,0,0-.832-.27c-.336.481-.618,1-.916,1.506l.339.258,1.408-1.493" transform="translate(-11.154 0)" fill="#fff"/>
  </g>
</svg>
