<svg id="Group_22061" data-name="Group 22061" xmlns="http://www.w3.org/2000/svg" xmlns:xlink="http://www.w3.org/1999/xlink" width="53.354" height="51.912" viewBox="0 0 53.354 51.912">
  <defs>
    <clipPath id="clip-path">
      <rect id="Rectangle_57160" data-name="Rectangle 57160" width="53.354" height="51.912" fill="#fff"/>
    </clipPath>
  </defs>
  <g id="Group_22060" data-name="Group 22060" transform="translate(0 0)" clip-path="url(#clip-path)">
    <path id="Path_8252" data-name="Path 8252" d="M52.736,0H0V52.735H17.679q.024-16.673.047-33.347a19.013,19.013,0,0,0-.018-2.242c-.171-1.442.379-2.017,1.836-1.83a21.585,21.585,0,0,0,2.493.016c0,.932,0,1.753,0,2.575q0,16.45.008,32.9c0,.642.084,1.284.128,1.926H52.736q0-26.368,0-52.735M2.391,33.256a1.232,1.232,0,0,1-.884-.807c-.1-1.315-.042-2.641-.042-3.923l6.461,4.768c-1.783,0-3.662.039-5.535-.038m12.777-2.793C11.213,28.376,6.525,27.924,3.4,24.329a6.767,6.767,0,0,1-1.869-4.676c.156-.091.262-.2.316-.177,3.223,1.286,6.531,2.4,9.634,3.93a6.456,6.456,0,0,1,3.683,7.057M15.255,20a2.131,2.131,0,0,1-2.882.792c-1.156-.555-1.346-1.562-1.123-2.774a19.448,19.448,0,0,0,.025-2.922,22.838,22.838,0,0,1,3.572,1.827A2.14,2.14,0,0,1,15.255,20m35.282-4.372-3.66,3.823-2.293-3.823Zm-19.1,8.678c-1.2,2.005-3.1,2.651-5.606,2.342,2.733-3.839,2.709-7.5-.042-11.222,2.43-.279,4.345.341,5.6,2.378a5.915,5.915,0,0,1,.047,6.5m6.809,9.115c-2.814-.049-2.818,0-2.82-2.873q-.006-6.574,0-13.148v-1.85h4.251c.032.578.081,1.065.082,1.551,0,4.93-.034,9.86.022,14.789.014,1.184-.363,1.55-1.531,1.53m8.029-1.883c-1.3-1.823-2.6-3.638-3.958-5.417-.633-.832-.683-1.437.26-2.068A20.531,20.531,0,0,0,44.5,22.38l7.755,10.657a4.718,4.718,0,0,1-5.983-1.5" transform="translate(0.045 -0.17)" fill="#fff"/>
  </g>
</svg>
