<svg xmlns="http://www.w3.org/2000/svg" width="25.225" height="25.225" viewBox="0 0 25.225 25.225">
  <g id="Instagram_simple_icon" transform="translate(0 0)">
    <path id="Path_7802" data-name="Path 7802" d="M16.691,6.352c3.368,0,3.767.013,5.1.074a6.979,6.979,0,0,1,2.342.434,4.177,4.177,0,0,1,2.394,2.394,6.978,6.978,0,0,1,.434,2.342c.061,1.33.074,1.729.074,5.1s-.013,3.767-.074,5.1a6.981,6.981,0,0,1-.434,2.342,4.177,4.177,0,0,1-2.394,2.394,6.978,6.978,0,0,1-2.342.434c-1.33.061-1.729.074-5.1.074s-3.767-.013-5.1-.074a6.981,6.981,0,0,1-2.342-.434A4.177,4.177,0,0,1,6.859,24.13a6.978,6.978,0,0,1-.434-2.342c-.061-1.33-.074-1.729-.074-5.1s.013-3.767.074-5.1a6.979,6.979,0,0,1,.434-2.342A4.177,4.177,0,0,1,9.253,6.859a6.978,6.978,0,0,1,2.342-.434c1.33-.061,1.729-.074,5.1-.074m0-2.272c-3.425,0-3.855.015-5.2.076a9.257,9.257,0,0,0-3.062.586A6.452,6.452,0,0,0,4.741,8.43a9.259,9.259,0,0,0-.586,3.062c-.062,1.345-.076,1.775-.076,5.2s.015,3.855.076,5.2a9.257,9.257,0,0,0,.586,3.062A6.449,6.449,0,0,0,8.43,28.642a9.258,9.258,0,0,0,3.062.586c1.345.061,1.775.076,5.2.076s3.855-.015,5.2-.076a9.257,9.257,0,0,0,3.062-.586,6.449,6.449,0,0,0,3.689-3.689,9.258,9.258,0,0,0,.586-3.062c.061-1.345.076-1.775.076-5.2s-.015-3.855-.076-5.2a9.257,9.257,0,0,0-.586-3.062,6.451,6.451,0,0,0-3.689-3.689,9.259,9.259,0,0,0-3.062-.586c-1.345-.062-1.775-.076-5.2-.076h0Z" transform="translate(-4.079 -4.079)" fill="#fff"/>
    <path id="Path_7803" data-name="Path 7803" d="M133.112,126.635a6.477,6.477,0,1,0,6.477,6.477A6.477,6.477,0,0,0,133.112,126.635Zm0,10.681a4.2,4.2,0,1,1,4.2-4.2,4.2,4.2,0,0,1-4.2,4.2Z" transform="translate(-120.499 -120.499)" fill="#fff"/>
    <circle id="Ellipse_334" data-name="Ellipse 334" cx="1.513" cy="1.513" r="1.513" transform="translate(17.831 4.366)" fill="#fff"/>
  </g>
</svg>
