<svg xmlns="http://www.w3.org/2000/svg" width="26.667" height="21.658" viewBox="0 0 26.667 21.658">
  <path id="Icon_awesome-twitter" data-name="Icon awesome-twitter" d="M23.926,8.778c.017.237.017.474.017.711a15.443,15.443,0,0,1-15.55,15.55A15.444,15.444,0,0,1,0,22.586a11.305,11.305,0,0,0,1.32.068A10.945,10.945,0,0,0,8.1,20.318a5.475,5.475,0,0,1-5.11-3.79,6.892,6.892,0,0,0,1.032.085,5.78,5.78,0,0,0,1.438-.186,5.466,5.466,0,0,1-4.382-5.364V11a5.5,5.5,0,0,0,2.47.694,5.473,5.473,0,0,1-1.692-7.31A15.535,15.535,0,0,0,13.13,10.1a6.17,6.17,0,0,1-.135-1.252,5.471,5.471,0,0,1,9.459-3.739,10.76,10.76,0,0,0,3.469-1.32,5.451,5.451,0,0,1-2.4,3.012,10.956,10.956,0,0,0,3.147-.846,11.748,11.748,0,0,1-2.741,2.826Z" transform="translate(0 -3.381)" fill="#fff"/>
</svg>
