<svg xmlns="http://www.w3.org/2000/svg" width="30" height="20.441" viewBox="0 0 30 20.441">
  <path id="Icon_awesome-youtube" data-name="Icon awesome-youtube" d="M30.423,7.7a3.712,3.712,0,0,0-2.652-2.587C25.431,4.5,16.05,4.5,16.05,4.5s-9.381,0-11.721.611A3.712,3.712,0,0,0,1.677,7.7a37.163,37.163,0,0,0-.627,7.043,37.163,37.163,0,0,0,.627,7.043A3.659,3.659,0,0,0,4.329,24.33c2.34.611,11.721.611,11.721.611s9.381,0,11.721-.611a3.659,3.659,0,0,0,2.652-2.546,37.163,37.163,0,0,0,.627-7.043A37.163,37.163,0,0,0,30.423,7.7ZM12.982,19.064V10.419l7.841,4.323-7.841,4.323Z" transform="translate(-1.05 -4.5)" fill="#fff"/>
</svg>
